<?xml version="1.0" encoding="iso-8859-1"?>
<!-- Generator: Adobe Illustrator 17.1.0, SVG Export Plug-In . SVG Version: 6.00 Build 0)  -->
<!DOCTYPE svg PUBLIC "-//W3C//DTD SVG 1.1//EN" "http://www.w3.org/Graphics/SVG/1.1/DTD/svg11.dtd">
<svg version="1.1" id="Capa_1" xmlns="http://www.w3.org/2000/svg" xmlns:xlink="http://www.w3.org/1999/xlink" x="0px" y="0px"
	 viewBox="0 0 292 292" style="enable-background:new 0 0 292 292;" xml:space="preserve">
<g>
	<path d="M112.917,49.506c1.111,2.146,3.482,3.494,5.9,3.494h54.991c2.426,0,4.799-1.356,5.904-3.511l21.213-41.235
		c0.919-1.793,0.861-3.896-0.153-5.559C199.757,1.033,197.948,0,195.934,0H96.481c-2.019,0-3.829,1.06-4.844,2.727
		c-1.014,1.667-1.064,3.718-0.135,5.514L112.917,49.506z"/>
	<path d="M200.482,65l11.68,11.681c1.151,1.154,2.767,1.816,4.431,1.816c1.209,0,2.376-0.341,3.371-0.984l38.698-25.019
		c1.495-0.964,2.46-2.517,2.647-4.258c0.188-1.743-0.427-3.465-1.689-4.729l-29.5-29.499c-1.103-1.102-2.549-1.71-4.072-1.71
		c-2.132,0-4.075,1.202-5.074,3.142l-21.656,42.146C198.067,60.021,198.548,63.072,200.482,65z"/>
	<path d="M34.224,52.231L72.73,77.438c1.004,0.658,2.18,1.006,3.401,1.006c1.659,0,3.271-0.66,4.421-1.811l11.601-11.601
		c1.939-1.938,2.412-4.994,1.149-7.433L71.515,15.599c-0.999-1.929-2.94-3.127-5.067-3.127c-1.527,0-2.976,0.609-4.074,1.711
		l-29.071,29.07c-1.256,1.253-1.875,2.969-1.697,4.707C31.782,49.699,32.735,51.255,34.224,52.231z"/>
	<path d="M176.86,74h-61.054c-1.865,0-3.924,0.994-5.242,2.313L91.129,95.861C89.81,97.179,89,99.309,89,101.174v89.652
		c0,1.865,0.81,3.924,2.129,5.242l19.456,19.619c1.318,1.319,3.356,2.313,5.221,2.313h61.054c1.862,0,3.918-0.992,5.242-2.313
		l19.097-19.543c1.322-1.319,1.801-3.449,1.801-5.318v-89.652c0-1.868-0.478-3.928-1.797-5.242l-19.292-19.624
		C180.59,74.992,178.723,74,176.86,74z"/>
	<path d="M185.529,242.494c-1.111-2.146-3.482-3.494-5.899-3.494h-53.765c-2.422,0-4.794,1.352-5.904,3.51l-21.213,41.236
		c-0.919,1.793-0.861,3.897,0.153,5.559c1.016,1.662,2.824,2.695,4.839,2.695h98.226c2.021,0,3.831-1.061,4.845-2.73
		c1.014-1.669,1.063-3.722,0.133-5.51L185.529,242.494z"/>
	<path d="M266.944,73.084c-1.088,0-1.972,0.324-2.921,0.938l-36.073,23.434c-1.898,1.228-2.951,3.481-2.951,5.741v82.667
		c0,2.25,1.14,4.5,3.022,5.73l36.218,23.595c0.954,0.622,2.06,0.811,3.154,0.811c0,0-0.031,0-0.03,0
		c1.698,0,2.862-0.633,3.891-1.982c0.75-0.982,0.745-2.041,0.745-3.329V78.678C272,75.541,269.995,73.084,266.944,73.084z"/>
	<path d="M260.255,237.957l-38.508-25.207c-1.003-0.658-2.179-1.006-3.4-1.006c-1.659,0-3.27,0.66-4.42,1.811l-9.607,9.607
		c-1.942,1.941-2.414,5-1.149,7.433l21.788,42.001c0.999,1.929,2.94,3.127,5.067,3.127c1.524,0,2.972-0.607,4.074-1.711
		l27.077-27.076c1.257-1.255,1.876-2.972,1.696-4.712C262.694,240.483,261.739,238.928,260.255,237.957z"/>
	<path d="M96.814,231.629l-13.08-13.08c-1.151-1.152-2.765-1.813-4.427-1.813c-1.209,0-2.375,0.341-3.37,0.984l-38.698,25.019
		c-1.495,0.964-2.46,2.517-2.646,4.258c-0.188,1.743,0.427,3.465,1.688,4.729l30.898,30.899c1.103,1.1,2.548,1.705,4.069,1.705
		c2.132,0,4.075-1.202,5.074-3.143l21.651-42.139C99.228,236.616,98.751,233.564,96.814,231.629z"/>
	<path d="M67,194.128v-90.989c0-2.247-0.804-4.495-2.688-5.731L28.263,73.676c-0.955-0.625-1.884-0.954-2.981-0.954
		c-3.049,0-5.283,2.455-5.283,5.591v140.334c0,3.137,2.337,5.594,5.389,5.594c1.088,0,2.139-0.324,3.087-0.938L64.3,199.869
		C66.197,198.642,67,196.388,67,194.128z"/>
</g>
<g>
</g>
<g>
</g>
<g>
</g>
<g>
</g>
<g>
</g>
<g>
</g>
<g>
</g>
<g>
</g>
<g>
</g>
<g>
</g>
<g>
</g>
<g>
</g>
<g>
</g>
<g>
</g>
<g>
</g>
</svg>
