<?xml version="1.0" encoding="iso-8859-1"?>
<!-- Generator: Adobe Illustrator 19.0.0, SVG Export Plug-In . SVG Version: 6.00 Build 0)  -->
<svg version="1.1" id="Layer_1" xmlns="http://www.w3.org/2000/svg" xmlns:xlink="http://www.w3.org/1999/xlink" x="0px" y="0px"
	 viewBox="0 0 511.997 511.997" style="enable-background:new 0 0 511.997 511.997;" xml:space="preserve">
<g>
	<g>
		<path d="M492.508,158.036C438.492,27.621,288.441-34.527,158.035,19.488C27.62,73.505-34.528,223.555,19.488,353.961
			c54.016,130.415,204.066,192.563,334.481,138.547S546.524,288.442,492.508,158.036z M268.798,26.179
			c52.087,2.944,101.76,23.518,140.655,58.257l-68.292,68.292l-72.363-29.978V26.179z M167.823,43.134
			c24.687-10.223,50.133-15.582,75.383-16.981l-0.009,96.597l-72.371,29.978l-68.318-68.309
			C121.359,67.557,143.136,53.357,167.823,43.134z M84.435,102.543l68.292,68.292l-29.969,72.363h-96.58
			C29.113,191.128,49.687,141.455,84.435,102.543z M43.142,344.165c-10.231-24.687-15.59-50.116-16.99-75.366h96.606l29.978,72.363
			L84.427,409.47C67.565,390.62,53.374,368.852,43.142,344.165z M243.198,485.827c-52.079-2.953-101.76-23.526-140.655-58.266
			l68.292-68.292l72.363,29.978V485.827z M177.628,334.368l-32.461-78.37l32.452-78.37l78.387-32.469l78.362,32.469l32.461,78.37
			l-32.452,78.37l-78.387,32.469L177.628,334.368z M344.173,468.862c-24.687,10.223-50.133,15.582-75.383,16.99l0.008-96.606
			l72.371-29.978l68.318,68.309C390.637,444.44,368.86,458.639,344.173,468.862z M427.56,409.453l-68.292-68.284l29.969-72.363
			h96.58C482.882,320.869,462.3,370.55,427.56,409.453z M389.246,243.198l-29.978-72.363l68.309-68.309
			c16.862,18.85,31.053,40.619,41.284,65.306c10.231,24.687,15.582,50.116,16.99,75.366H389.246z"/>
	</g>
</g>
<g>
</g>
<g>
</g>
<g>
</g>
<g>
</g>
<g>
</g>
<g>
</g>
<g>
</g>
<g>
</g>
<g>
</g>
<g>
</g>
<g>
</g>
<g>
</g>
<g>
</g>
<g>
</g>
<g>
</g>
</svg>
